<?xml version="1.0" encoding="utf-8"?>
<!-- Generator: Adobe Illustrator 27.0.0, SVG Export Plug-In . SVG Version: 6.00 Build 0)  -->
<svg version="1.1" id="Layer_1" xmlns="http://www.w3.org/2000/svg" xmlns:xlink="http://www.w3.org/1999/xlink" x="0px" y="0px"
	 viewBox="0 0 1271.05 813.99" style="enable-background:new 0 0 1271.05 813.99;" xml:space="preserve">
<g>
	<g>
		<g>
			<path d="M71.23,87.54v169.32h143.14V40.78h44.85c44.52,0,80.47,9.07,107.83,27.19c27.34,18.14,47.55,48.67,60.6,91.61
				c8,26.36,13.54,58.8,16.63,97.27h147.41c-6.46-32.96-17.23-62.85-32.36-89.64c-26.4-46.75-63.93-82.69-112.6-107.83
				C398.06,34.26,340,21.69,272.58,21.69H20.66v9.54l20.04,7.64C61.05,45.88,71.23,62.11,71.23,87.54z"/>
			<path d="M729.94,87.54v169.32h143.14V40.78h44.85c44.52,0,80.47,9.07,107.83,27.19c27.34,18.14,47.55,48.67,60.6,91.61
				c8,26.36,13.54,58.8,16.63,97.27h147.41c-6.46-32.96-17.23-62.85-32.36-89.64c-26.4-46.75-63.93-82.69-112.6-107.83
				c-48.67-25.13-106.73-37.7-174.15-37.7H679.37v9.54l20.04,7.64C719.76,45.88,729.94,62.11,729.94,87.54z"/>
			<path d="M1102.43,422.84c-3.18,35.63-8.53,65.91-16.07,90.76c-13.05,42.95-33.57,73.49-61.55,91.61
				c-28,18.14-64.89,27.19-110.69,27.19h-41.03V422.84H729.94v162.81c0,24.18-10.18,40.4-30.54,48.66l-20.04,7.64v9.54h234.74
				c69.33,0,129.62-12.4,180.83-37.21c51.2-24.81,91.13-60.75,119.76-107.83c15.24-25.07,26.39-52.96,33.51-83.62H1102.43z"/>
			<path d="M443.72,422.84c-3.18,35.63-8.53,65.91-16.07,90.76c-13.05,42.95-33.57,73.49-61.55,91.61
				c-28,18.14-64.89,27.19-110.69,27.19h-41.03V422.84H71.23v162.81c0,24.18-10.18,40.4-30.54,48.66l-20.04,7.64v9.54H255.4
				c69.33,0,129.62-12.4,180.83-37.21c51.2-24.81,91.13-60.75,119.76-107.83c15.24-25.07,26.39-52.96,33.51-83.62H443.72z"/>
		</g>
		<g>
			<path d="M116.25,368.49V311.2h24.15c3.4,0,6.68,0.65,9.82,1.95c3.14,1.3,5.96,3.19,8.44,5.67c2.48,2.48,4.44,5.48,5.89,9
				c1.44,3.52,2.16,7.53,2.16,12.03c0,4.5-0.72,8.51-2.16,12.03c-1.44,3.52-3.4,6.52-5.89,9c-2.48,2.48-5.29,4.37-8.44,5.67
				c-3.14,1.3-6.42,1.95-9.82,1.95H116.25z M122.74,362.35h17.39c4.1,0,7.65-1.04,10.65-3.12c3-2.08,5.32-4.82,6.97-8.22
				c1.64-3.4,2.47-7.13,2.47-11.17c0-4.1-0.82-7.84-2.47-11.25s-3.97-6.13-6.97-8.18c-3-2.05-6.55-3.07-10.65-3.07h-17.39V362.35z"
				/>
			<path d="M236.11,368.49V311.2h42.15v6.23H242.6v19.21h31.85v6.32H242.6v19.3h35.65v6.23H236.11z"/>
			<path d="M370.77,369.18c-5.71,0-10.65-1.31-14.8-3.94c-4.15-2.62-7.34-6.16-9.56-10.6c-2.22-4.44-3.33-9.37-3.33-14.8
				c0-5.42,1.11-10.35,3.33-14.8c2.22-4.44,5.41-7.98,9.56-10.6c4.15-2.63,9.09-3.94,14.8-3.94c4.33,0,8.22,0.76,11.68,2.29
				c3.46,1.53,6.4,3.62,8.83,6.27c2.42,2.65,4.24,5.74,5.45,9.26h-6.84c-1.44-3.52-3.72-6.32-6.84-8.4s-7.04-3.12-11.77-3.12
				c-4.62,0-8.56,1.03-11.81,3.07c-3.26,2.05-5.73,4.8-7.4,8.26c-1.68,3.46-2.51,7.35-2.51,11.68c0,4.27,0.83,8.15,2.51,11.64
				c1.67,3.49,4.14,6.26,7.4,8.31c3.26,2.05,7.2,3.07,11.81,3.07c4.73,0,8.65-1.04,11.77-3.12s5.4-4.87,6.84-8.39h6.84
				c-1.21,3.46-3.03,6.53-5.45,9.22c-2.42,2.68-5.37,4.79-8.83,6.32C378.99,368.42,375.1,369.18,370.77,369.18z"/>
			<path d="M490.89,369.18c-4.33,0-8.28-0.75-11.86-2.25c-3.58-1.5-6.65-3.61-9.22-6.32c-2.57-2.71-4.55-5.84-5.93-9.39
				c-1.38-3.55-2.07-7.34-2.07-11.38c0-4.1,0.69-7.9,2.07-11.42c1.38-3.52,3.36-6.64,5.93-9.35c2.57-2.71,5.64-4.82,9.22-6.32
				c3.57-1.5,7.53-2.25,11.86-2.25c4.33,0,8.28,0.75,11.86,2.25c3.57,1.5,6.65,3.61,9.22,6.32c2.57,2.71,4.54,5.83,5.93,9.35
				c1.38,3.52,2.08,7.33,2.08,11.42c0,4.04-0.69,7.83-2.08,11.38c-1.38,3.55-3.36,6.68-5.93,9.39c-2.57,2.71-5.64,4.82-9.22,6.32
				C499.16,368.43,495.21,369.18,490.89,369.18z M490.89,362.87c4.67,0,8.7-1.02,12.07-3.07c3.38-2.05,5.97-4.82,7.79-8.31
				c1.82-3.49,2.73-7.37,2.73-11.64c0-4.33-0.91-8.22-2.73-11.68c-1.82-3.46-4.41-6.22-7.79-8.26c-3.38-2.05-7.4-3.07-12.07-3.07
				c-4.62,0-8.63,1.03-12.03,3.07c-3.4,2.05-6.01,4.8-7.83,8.26c-1.82,3.46-2.73,7.35-2.73,11.68c0,4.27,0.91,8.15,2.73,11.64
				s4.43,6.26,7.83,8.31C482.26,361.84,486.27,362.87,490.89,362.87z"/>
			<path d="M666.83,368.49V311.2h24.15c3.4,0,6.68,0.65,9.82,1.95c3.14,1.3,5.96,3.19,8.44,5.67c2.48,2.48,4.44,5.48,5.89,9
				c1.44,3.52,2.16,7.53,2.16,12.03c0,4.5-0.72,8.51-2.16,12.03c-1.45,3.52-3.41,6.52-5.89,9c-2.48,2.48-5.3,4.37-8.44,5.67
				c-3.14,1.3-6.42,1.95-9.82,1.95H666.83z M673.32,362.35h17.39c4.09,0,7.64-1.04,10.64-3.12c3-2.08,5.32-4.82,6.97-8.22
				c1.64-3.4,2.47-7.13,2.47-11.17c0-4.1-0.82-7.84-2.47-11.25c-1.64-3.4-3.97-6.13-6.97-8.18c-3-2.05-6.55-3.07-10.64-3.07h-17.39
				V362.35z"/>
			<path d="M786.69,368.49V311.2h42.15v6.23h-35.65v19.21h31.85v6.32h-31.85v19.3h35.65v6.23H786.69z"/>
			<path d="M898.32,368.49V311.2h25.79c6.11,0,10.93,1.66,14.45,4.98c3.52,3.32,5.28,7.8,5.28,13.46s-1.76,10.14-5.28,13.46
				c-3.52,3.32-8.34,4.98-14.45,4.98h-19.3v20.42H898.32z M904.82,342.01h18.87c4.5,0,7.9-1.1,10.21-3.29
				c2.31-2.19,3.46-5.22,3.46-9.09c0-3.81-1.15-6.81-3.46-9c-2.31-2.19-5.71-3.29-10.21-3.29h-18.87V342.01z"/>
			<path d="M1037.14,369.18c-4.33,0-8.28-0.75-11.86-2.25c-3.58-1.5-6.65-3.61-9.22-6.32c-2.57-2.71-4.54-5.84-5.93-9.39
				c-1.38-3.55-2.08-7.34-2.08-11.38c0-4.1,0.69-7.9,2.08-11.42c1.38-3.52,3.36-6.64,5.93-9.35c2.57-2.71,5.64-4.82,9.22-6.32
				c3.58-1.5,7.53-2.25,11.86-2.25c4.33,0,8.28,0.75,11.86,2.25c3.58,1.5,6.65,3.61,9.22,6.32c2.57,2.71,4.54,5.83,5.93,9.35
				c1.38,3.52,2.08,7.33,2.08,11.42c0,4.04-0.69,7.83-2.08,11.38c-1.38,3.55-3.36,6.68-5.93,9.39c-2.57,2.71-5.64,4.82-9.22,6.32
				S1041.46,369.18,1037.14,369.18z M1037.14,362.87c4.67,0,8.7-1.02,12.07-3.07c3.37-2.05,5.97-4.82,7.79-8.31
				s2.73-7.37,2.73-11.64c0-4.33-0.91-8.22-2.73-11.68c-1.82-3.46-4.41-6.22-7.79-8.26c-3.38-2.05-7.4-3.07-12.07-3.07
				c-4.62,0-8.63,1.03-12.03,3.07c-3.4,2.05-6.01,4.8-7.83,8.26c-1.82,3.46-2.73,7.35-2.73,11.68c0,4.27,0.91,8.15,2.73,11.64
				c1.82,3.49,4.43,6.26,7.83,8.31C1028.51,361.84,1032.52,362.87,1037.14,362.87z"/>
			<path d="M1147.39,368.49v-51.15h-19.99v-6.14h46.47v6.14h-19.99v51.15H1147.39z"/>
		</g>
	</g>
	<g>
		<g>
			<path d="M465.39,730.5c-1.67,0-3.28-0.32-4.85-0.97c-1.57-0.65-2.96-1.55-4.19-2.7c-1.22-1.16-2.21-2.48-2.96-3.98
				c-3.27-0.1-6.13-0.94-8.6-2.5c-2.47-1.57-4.39-3.63-5.77-6.2c-1.38-2.57-2.07-5.42-2.07-8.55c0-2.42,0.41-4.66,1.22-6.74
				s1.98-3.91,3.5-5.51c1.51-1.6,3.32-2.84,5.43-3.72c2.11-0.88,4.44-1.33,6.99-1.33s4.88,0.44,6.99,1.33
				c2.11,0.89,3.92,2.13,5.43,3.72c1.51,1.6,2.68,3.44,3.5,5.51c0.82,2.07,1.22,4.32,1.22,6.74c0,2.86-0.58,5.48-1.76,7.88
				c-1.17,2.4-2.81,4.4-4.9,6c-2.09,1.6-4.53,2.64-7.32,3.11c0.34,0.61,0.85,1.28,1.53,2.01c0.68,0.73,1.57,1.35,2.65,1.86
				c1.09,0.51,2.42,0.77,3.98,0.77c1.22,0,2.34-0.2,3.34-0.61c1-0.41,1.95-0.97,2.83-1.68l2.04,2.75c-1.19,0.95-2.46,1.66-3.8,2.12
				C468.52,730.27,467.03,730.5,465.39,730.5z M454.12,719.17c2.76,0,5.13-0.6,7.12-1.81c1.99-1.21,3.52-2.84,4.59-4.9
				c1.07-2.06,1.61-4.35,1.61-6.86c0-2.55-0.54-4.85-1.61-6.89c-1.07-2.04-2.6-3.66-4.59-4.87c-1.99-1.21-4.36-1.81-7.12-1.81
				c-2.72,0-5.09,0.6-7.09,1.81c-2.01,1.21-3.55,2.83-4.62,4.87c-1.07,2.04-1.61,4.34-1.61,6.89c0,2.52,0.54,4.8,1.61,6.86
				c1.07,2.06,2.61,3.69,4.62,4.9C449.03,718.57,451.39,719.17,454.12,719.17z"/>
			<path d="M523.26,722.9c-2.79,0-5.26-0.62-7.43-1.86c-2.16-1.24-3.85-2.98-5.08-5.23c-1.22-2.25-1.84-4.87-1.84-7.86v-19.24h3.83
				v19.34c0,2.62,0.5,4.74,1.51,6.38c1,1.63,2.31,2.83,3.93,3.6c1.62,0.77,3.31,1.15,5.08,1.15c1.8,0,3.5-0.38,5.1-1.15
				c1.6-0.76,2.91-1.96,3.93-3.6c1.02-1.63,1.53-3.76,1.53-6.38v-19.34h3.83v19.24c0,2.96-0.61,5.56-1.84,7.81
				c-1.22,2.25-2.92,4-5.08,5.26C528.58,722.27,526.09,722.9,523.26,722.9z"/>
			<path d="M572.25,722.49l14.34-33.78h4.8l14.34,33.78h-4.24l-4.13-9.8h-16.74l-4.13,9.8H572.25z M582.1,709.17h13.78l-6.89-16.48
				L582.1,709.17z"/>
			<path d="M641.96,722.49v-33.78h3.83v30.11h18.42v3.67H641.96z"/>
			<path d="M701.1,722.49v-33.78h3.83v33.78H701.1z"/>
			<path d="M753.51,722.49v-30.16h-11.79v-3.62h27.4v3.62h-11.79v30.16H753.51z"/>
			<path d="M816.12,722.49v-13.37l-14.19-20.41h4.65l11.43,16.43l11.43-16.43h4.64l-14.13,20.41v13.37H816.12z"/>
		</g>
		<g>
			<path d="M339.17,791.89v-33.78h24.39v3.67H343v11.74h18.32v3.72H343v14.65H339.17z"/>
			<path d="M414.8,792.3c-2.79,0-5.27-0.62-7.43-1.86c-2.16-1.24-3.85-2.98-5.08-5.23s-1.84-4.87-1.84-7.86v-19.24h3.83v19.34
				c0,2.62,0.5,4.74,1.51,6.38c1,1.63,2.31,2.83,3.93,3.6c1.62,0.77,3.31,1.15,5.08,1.15c1.8,0,3.5-0.38,5.1-1.15
				c1.6-0.76,2.91-1.96,3.93-3.6c1.02-1.63,1.53-3.76,1.53-6.38v-19.34h3.83v19.24c0,2.96-0.61,5.56-1.84,7.81
				c-1.22,2.25-2.92,4-5.08,5.26S417.62,792.3,414.8,792.3z"/>
			<path d="M468.99,791.89v-33.78h16.18c3.47,0,6.23,0.95,8.29,2.86c2.06,1.91,3.09,4.47,3.09,7.71c0,2.18-0.42,3.91-1.25,5.21
				c-0.83,1.29-1.88,2.27-3.14,2.93c-1.26,0.66-2.52,1.15-3.78,1.45l8.88,13.63h-4.54l-8.16-12.96h-11.74v12.96H468.99z
				 M472.82,775.3h11.69c1.22,0,2.47-0.19,3.72-0.56c1.26-0.38,2.32-1.05,3.19-2.02c0.87-0.97,1.3-2.32,1.3-4.06
				c0-2.14-0.73-3.83-2.19-5.08c-1.46-1.24-3.4-1.86-5.82-1.86h-11.89V775.3z"/>
			<path d="M535.08,791.89v-33.78h4.44l20.87,28.42v-28.42h3.83v33.78h-4.44l-20.87-28.53v28.53H535.08z"/>
			<path d="M604.42,791.89v-33.78h3.83v33.78H604.42z"/>
			<path d="M656.83,791.89v-30.16h-11.79v-3.62h27.4v3.62h-11.79v30.16H656.83z"/>
			<path d="M723.17,792.3c-2.79,0-5.27-0.62-7.43-1.86c-2.16-1.24-3.85-2.98-5.08-5.23s-1.84-4.87-1.84-7.86v-19.24h3.83v19.34
				c0,2.62,0.5,4.74,1.51,6.38c1,1.63,2.31,2.83,3.93,3.6c1.62,0.77,3.31,1.15,5.08,1.15c1.8,0,3.5-0.38,5.1-1.15
				c1.6-0.76,2.91-1.96,3.93-3.6c1.02-1.63,1.53-3.76,1.53-6.38v-19.34h3.83v19.24c0,2.96-0.61,5.56-1.84,7.81
				c-1.22,2.25-2.92,4-5.08,5.26S725.99,792.3,723.17,792.3z"/>
			<path d="M777.36,791.89v-33.78h16.18c3.47,0,6.23,0.95,8.29,2.86c2.06,1.91,3.09,4.47,3.09,7.71c0,2.18-0.42,3.91-1.25,5.21
				c-0.83,1.29-1.88,2.27-3.14,2.93c-1.26,0.66-2.52,1.15-3.78,1.45l8.88,13.63h-4.54l-8.16-12.96h-11.74v12.96H777.36z
				 M781.19,775.3h11.69c1.22,0,2.47-0.19,3.72-0.56c1.26-0.38,2.32-1.05,3.19-2.02c0.87-0.97,1.3-2.32,1.3-4.06
				c0-2.14-0.73-3.83-2.19-5.08c-1.46-1.24-3.4-1.86-5.82-1.86h-11.89V775.3z"/>
			<path d="M843.44,791.89v-33.78h24.85v3.67h-21.02v11.33h18.78v3.72h-18.78v11.38h21.02v3.67H843.44z"/>
			<path d="M918.51,792.3c-3.34,0-6.04-0.45-8.11-1.35c-2.07-0.9-3.63-2.15-4.67-3.75s-1.64-3.4-1.81-5.41h3.98
				c0.1,1.63,0.65,2.95,1.63,3.96c0.99,1,2.29,1.74,3.9,2.22c1.62,0.47,3.39,0.71,5.33,0.71c2.86,0,5.12-0.5,6.79-1.51
				c1.67-1,2.5-2.49,2.5-4.46c0-1.19-0.42-2.15-1.25-2.89c-0.83-0.73-1.94-1.33-3.32-1.81c-1.38-0.48-2.89-0.91-4.52-1.3
				c-1.63-0.39-3.28-0.81-4.93-1.25c-1.65-0.44-3.16-1-4.54-1.68c-1.38-0.68-2.48-1.56-3.32-2.63c-0.83-1.07-1.25-2.44-1.25-4.11
				c0-2.76,1.06-5,3.19-6.74c2.13-1.73,5.3-2.6,9.52-2.6c2.99,0,5.46,0.45,7.4,1.35c1.94,0.9,3.39,2.08,4.36,3.55
				c0.97,1.46,1.51,3.05,1.61,4.74h-3.93c-0.2-1.7-1.05-3.14-2.55-4.31c-1.5-1.17-3.8-1.76-6.89-1.76c-1.91,0-3.45,0.19-4.64,0.56
				c-1.19,0.38-2.1,0.86-2.73,1.46c-0.63,0.6-1.06,1.22-1.28,1.86c-0.22,0.65-0.33,1.26-0.33,1.84c0,1.12,0.41,2.03,1.25,2.73
				c0.83,0.7,1.94,1.28,3.32,1.74c1.38,0.46,2.9,0.88,4.57,1.25c1.67,0.38,3.33,0.79,4.98,1.25c1.65,0.46,3.17,1.04,4.54,1.73
				c1.38,0.7,2.48,1.59,3.32,2.68c0.83,1.09,1.25,2.48,1.25,4.18c0,3.13-1.19,5.54-3.57,7.22
				C925.92,791.45,922.66,792.3,918.51,792.3z"/>
		</g>
	</g>
</g>
</svg>
